<?xml version="1.0" encoding="UTF-8"?>
<!-- Created with Inkscape (http://www.inkscape.org/) -->
<svg width="105.71mm" height="19.006mm" version="1.1" viewBox="0 0 105.71 19.006" xmlns="http://www.w3.org/2000/svg" xmlns:cc="http://creativecommons.org/ns#" xmlns:dc="http://purl.org/dc/elements/1.1/" xmlns:rdf="http://www.w3.org/1999/02/22-rdf-syntax-ns#">
 <metadata>
  <rdf:RDF>
   <cc:Work rdf:about="">
    <dc:format>image/svg+xml</dc:format>
    <dc:type rdf:resource="http://purl.org/dc/dcmitype/StillImage"/>
    <dc:title/>
   </cc:Work>
  </rdf:RDF>
 </metadata>
 <g transform="translate(-52.224 -28.205)">
  <path d="m54.934 44.496v-16.291h-2.7104v19.006h13.552v-2.715z"/>
  <path d="m73.908 39.066h5.4208v-2.715h-8.1312v10.86h13.552v-2.715h-10.842z"/>
  <path d="m71.197 30.92h13.552v-2.7153h-13.552z" fill="#be1622"/>
  <g>
   <path d="m154.69 47.211h3.2438l-6.7606-19.006h-3.2442l4.2799 12.031h-8.109v0.14711l-2.4285 6.8277h3.2438l1.4908-4.191h6.7931z"/>
   <path d="m111.85 33.658h2.7104v13.553h-2.7104z"/>
   <path d="m102.11 42.103c-1.2428 1.4633-3.0939 2.3929-5.1618 2.3929-3.7426 0-6.7762-3.0392-6.7762-6.7878 0-3.749 3.0335-6.7878 6.7762-6.7878 2.1717 0 4.1035 1.0248 5.3439 2.6169l2.1142-1.6979c-1.7367-2.2119-4.4309-3.6343-7.4581-3.6343-5.2395 0-9.4866 4.2549-9.4866 9.5031 0 5.2483 4.2471 9.5028 9.4866 9.5028 2.9496 0 5.5852-1.3487 7.3251-3.4643z"/>
   <path d="m134.84 39.574c1.8796-1.0245 3.1584-3.018 3.1584-5.3086 0-3.3115-2.6988-6.0163-5.9958-6.054h0.0272-25.598l2.6e-4 2.6684 20.534-0.01023c-2.6e-4 0.0011-1e-3 0.0018-1e-3 0.0018l5.0356 0.0095c1.8771 0.01235 3.3828 1.5011 3.3828 3.3846 0 1.8447-1.4623 3.3496-3.2858 3.423h-3.6518v-4.0439l-3.042 0.01305v7.3473h1e-3v6.2071h3.0402v-6.2202h7.9e-4v-0.73413h2.6988c0.14499 0.01976 0.29175 0.03351 0.43991 0.04304l3.725 6.8901h3.6474z"/>
  </g>
 </g>
</svg>
